<svg width="103" height="100" viewBox="0 0 103 100" fill="none" xmlns="http://www.w3.org/2000/svg">
<path fill-rule="evenodd" clip-rule="evenodd" d="M51.1799 0C22.8785 0 0 22.9176 0 51.2675C0 73.9305 14.6592 93.1133 34.9956 99.9037C37.5376 100.413 38.4697 98.8003 38.4697 97.4422C38.4697 96.2539 38.385 92.1797 38.385 87.9357C24.1495 90.9913 21.1838 81.8243 21.1838 81.8243C18.8959 75.8827 15.5065 74.3549 15.5065 74.3549C10.8461 71.2143 15.8454 71.2143 15.8454 71.2143C21.0143 71.5538 23.7258 76.4769 23.7258 76.4769C28.3015 84.2858 35.6734 82.0789 38.6392 80.7209C39.0628 77.4105 40.4186 75.1188 41.8591 73.8456C30.5046 72.6573 18.557 68.2435 18.557 48.5514C18.557 42.9493 20.5906 38.3658 23.8105 34.8008C23.3021 33.5276 21.5227 28.265 24.3189 21.22C24.3189 21.22 28.6404 19.8619 38.385 26.4826C42.4522 25.3791 46.8585 24.785 51.1799 24.785C55.5014 24.785 59.9077 25.3791 63.9749 26.4826C73.7195 19.8619 78.0409 21.22 78.0409 21.22C80.8372 28.265 79.0578 33.5276 78.5494 34.8008C81.854 38.3658 83.8029 42.9493 83.8029 48.5514C83.8029 68.2435 71.8553 72.5724 60.4161 73.8456C62.2802 75.4583 63.8902 78.514 63.8902 83.3521C63.8902 90.2274 63.8055 95.7446 63.8055 97.4422C63.8055 98.8003 64.7376 100.413 67.2796 99.9037C87.616 93.1133 102.275 73.9305 102.275 51.2675C102.36 22.9176 79.3967 0 51.1799 0Z" fill="#EB314A"/>
<path d="M19.4043 73.5909C19.3196 73.8456 18.8959 73.9305 18.557 73.7607C18.218 73.5909 17.9638 73.2514 18.1333 72.9968C18.218 72.7421 18.6417 72.6573 18.9807 72.827C19.3196 72.9968 19.4891 73.3363 19.4043 73.5909Z" fill="#EB314A"/>
<path d="M21.438 75.8827C21.1838 76.1374 20.6753 75.9676 20.4211 75.6281C20.0822 75.2886 19.9975 74.7793 20.2517 74.5246C20.5059 74.27 20.9296 74.4398 21.2685 74.7793C21.6074 75.2037 21.6922 75.713 21.438 75.8827Z" fill="#EB314A"/>
<path d="M23.4716 78.8535C23.1327 79.1082 22.6242 78.8535 22.37 78.4291C22.0311 78.0047 22.0311 77.4106 22.37 77.2408C22.709 76.9862 23.2174 77.2408 23.4716 77.6652C23.8105 78.0896 23.8105 78.5989 23.4716 78.8535Z" fill="#EB314A"/>
<path d="M26.2679 81.7395C26.0136 82.079 25.4205 81.9941 24.9121 81.5697C24.4884 81.1453 24.3189 80.5511 24.6579 80.2965C24.9121 79.957 25.5052 80.0419 26.0136 80.4663C26.4373 80.8058 26.5221 81.3999 26.2679 81.7395Z" fill="#EB314A"/>
<path d="M30.0809 83.3522C29.9962 83.7766 29.403 83.9463 28.8099 83.7766C28.2168 83.6068 27.8778 83.0975 27.9626 82.758C28.0473 82.3336 28.6404 82.1638 29.2336 82.3336C29.8267 82.5034 30.1657 82.9278 30.0809 83.3522Z" fill="#EB314A"/>
<path d="M34.233 83.6917C34.233 84.1161 33.7245 84.4556 33.1314 84.4556C32.5383 84.4556 32.0299 84.1161 32.0299 83.6917C32.0299 83.2673 32.5383 82.9277 33.1314 82.9277C33.7245 82.9277 34.233 83.2673 34.233 83.6917Z" fill="#EB314A"/>
<path d="M38.1308 83.0126C38.2155 83.437 37.7918 83.8614 37.1987 83.9463C36.6055 84.0312 36.0971 83.7765 36.0124 83.3521C35.9277 82.9277 36.3513 82.5033 36.9445 82.4185C37.5376 82.3336 38.046 82.5882 38.1308 83.0126Z" fill="#EB314A"/>
</svg>
