<svg width="100" height="100" viewBox="0 0 100 100" fill="none" xmlns="http://www.w3.org/2000/svg">
<path fill-rule="evenodd" clip-rule="evenodd" d="M0 7.16337C0 3.20821 3.28758 -5.26793e-06 7.34322 -5.26793e-06H92.0263C96.0818 -5.26793e-06 99.3696 3.20821 99.3696 7.16337V92.8366C99.3696 96.7931 96.0818 100 92.0263 100H7.34322C3.28758 100 0 96.7931 0 92.8366V7.16337ZM30.122 83.7105V38.5549H15.1131V83.7105H30.122ZM22.6175 32.3897C27.8514 32.3897 31.109 28.9222 31.109 24.5889C31.0115 20.1581 27.8514 16.7868 22.7168 16.7868C17.5827 16.7868 14.2259 20.1581 14.2259 24.5889C14.2259 28.9222 17.4828 32.3897 22.5196 32.3897H22.6172H22.6175ZM53.4356 83.7105H38.4273C38.4273 83.7105 38.6243 42.792 38.4273 38.5549H53.4361V44.9481C55.4307 41.8712 59.0005 37.4953 66.9622 37.4953C76.8368 37.4953 84.2414 43.9491 84.2414 57.8189V83.7105H69.2338V59.5533C69.2338 53.4829 67.0613 49.3421 61.6303 49.3421C57.4841 49.3421 55.0145 52.1347 53.9295 54.8312C53.5332 55.7959 53.4356 57.1441 53.4356 58.4937V83.7105ZM53.4361 44.9481V45.1036H53.3358C53.3688 45.0522 53.4022 45.0003 53.4361 44.9481Z" fill="#EB314A"/>
</svg>
